# xmcd
#
# Track frame offsets:
#	150
#	12350
#	49056
#	84417
#	116817
#	162322
#
# Disc length: 2314 seconds
#
# Revision: 1
# Processed by: cddbd v1.5.2PL0 Copyright (c) Steve Scherf et al.
# Submitted via: EasyCDDAExtractor 2010.6.0.0
#
DISCID=44090806
DTITLE=Max Graham vs. Yes - Owner Of A Lonely Heart
DYEAR=2005
DGENRE=Dance
TTITLE0=Owner Of A Lonely Heart (Radio Edit)
TTITLE1=Owner Of A Lonely Heart (Club Mix)
TTITLE2=Owner Of A Lonely Heart (Klonehertz Remix)
TTITLE3=Owner Of A Lonely Heart (Future Funk Remix)
TTITLE4=Owner Of A Lonely Heart (Movement One Remix)
TTITLE5=Data
EXTD=
EXTT0=
EXTT1=
EXTT2=
EXTT3=
EXTT4=
EXTT5=
PLAYORDER=
